<mxfile host="app.diagrams.net" modified="2022-02-07T11:46:58.008Z" agent="5.0 (Windows NT 10.0; Win64; x64) AppleWebKit/537.36 (KHTML, like Gecko) Chrome/98.0.4758.87 Safari/537.36" etag="jgAAATFAGNm7Y1IJium2" version="16.4.11" type="github">
  <diagram id="VMb9Hx4n-MINGwp8aOxh" name="Page-1">
    <mxGraphModel dx="1422" dy="886" grid="1" gridSize="10" guides="1" tooltips="1" connect="1" arrows="1" fold="1" page="1" pageScale="1" pageWidth="850" pageHeight="1100" math="0" shadow="0">
      <root>
        <mxCell id="0" />
        <mxCell id="1" parent="0" />
        <mxCell id="mBjPJbwh9_qV5k31i3bs-4" value="&lt;b&gt;Free Space&lt;/b&gt;" style="rounded=0;whiteSpace=wrap;html=1;rotation=90;fillColor=#d5e8d4;strokeColor=#82b366;gradientColor=#97d077;" parent="1" vertex="1">
          <mxGeometry x="145.25" y="126.25" width="360" height="507.5" as="geometry" />
        </mxCell>
        <mxCell id="mBjPJbwh9_qV5k31i3bs-17" value="&lt;div&gt;&lt;span&gt;Sitting desk&lt;/span&gt;&lt;/div&gt;" style="rounded=0;whiteSpace=wrap;html=1;fillColor=#f5f5f5;gradientColor=#b3b3b3;strokeColor=#666666;align=left;" parent="1" vertex="1">
          <mxGeometry x="92" y="420" width="75" height="60" as="geometry" />
        </mxCell>
        <mxCell id="mBjPJbwh9_qV5k31i3bs-2" value="" style="rounded=0;whiteSpace=wrap;html=1;fillColor=none;" parent="1" vertex="1">
          <mxGeometry x="70" y="200" width="610" height="360" as="geometry" />
        </mxCell>
        <mxCell id="mBjPJbwh9_qV5k31i3bs-11" value="&lt;div&gt;&lt;span&gt;Sitting desk&lt;/span&gt;&lt;/div&gt;" style="rounded=0;whiteSpace=wrap;html=1;fillColor=#f5f5f5;gradientColor=#b3b3b3;strokeColor=#666666;align=center;rotation=90;" parent="1" vertex="1">
          <mxGeometry x="120" y="330" width="160" height="60" as="geometry" />
        </mxCell>
        <mxCell id="mBjPJbwh9_qV5k31i3bs-9" value="&lt;div&gt;&lt;span&gt;Sitting desk&lt;/span&gt;&lt;/div&gt;" style="rounded=0;whiteSpace=wrap;html=1;fillColor=#f5f5f5;gradientColor=#b3b3b3;strokeColor=#666666;align=left;" parent="1" vertex="1">
          <mxGeometry x="92" y="240" width="75" height="60" as="geometry" />
        </mxCell>
        <mxCell id="mBjPJbwh9_qV5k31i3bs-3" value="&lt;b&gt;Platform&lt;/b&gt;" style="rounded=0;whiteSpace=wrap;html=1;rotation=90;fillColor=#f8cecc;strokeColor=#b85450;" parent="1" vertex="1">
          <mxGeometry x="450" y="330" width="360" height="100" as="geometry" />
        </mxCell>
        <mxCell id="mBjPJbwh9_qV5k31i3bs-6" value="&lt;b&gt;Fridge&lt;/b&gt;" style="rounded=0;whiteSpace=wrap;html=1;fillColor=#dae8fc;gradientColor=#7ea6e0;strokeColor=#6c8ebf;" parent="1" vertex="1">
          <mxGeometry x="330" y="200" width="90" height="90" as="geometry" />
        </mxCell>
        <mxCell id="mBjPJbwh9_qV5k31i3bs-7" value="&lt;b&gt;Dining Table&lt;/b&gt;" style="rounded=0;whiteSpace=wrap;html=1;fillColor=#e6d0de;gradientColor=#d5739d;strokeColor=#996185;rotation=90;" parent="1" vertex="1">
          <mxGeometry x="49.5" y="300" width="160" height="120" as="geometry" />
        </mxCell>
        <mxCell id="mBjPJbwh9_qV5k31i3bs-12" value="&lt;b&gt;Room passage&lt;/b&gt;" style="rounded=0;whiteSpace=wrap;html=1;fillColor=#bac8d3;strokeColor=#23445d;" parent="1" vertex="1">
          <mxGeometry x="70" y="480" width="130" height="80" as="geometry" />
        </mxCell>
        <mxCell id="mBjPJbwh9_qV5k31i3bs-13" value="&lt;b&gt;Storage&lt;/b&gt;" style="rounded=0;whiteSpace=wrap;html=1;fillColor=#b1ddf0;strokeColor=#10739e;" parent="1" vertex="1">
          <mxGeometry x="420" y="120" width="160" height="80" as="geometry" />
        </mxCell>
        <mxCell id="mBjPJbwh9_qV5k31i3bs-15" value="&lt;b&gt;Storage&lt;/b&gt;" style="rounded=0;whiteSpace=wrap;html=1;fillColor=#b1ddf0;strokeColor=#10739e;" parent="1" vertex="1">
          <mxGeometry x="230" y="500" width="250" height="60" as="geometry" />
        </mxCell>
        <mxCell id="mBjPJbwh9_qV5k31i3bs-16" value="Wash Area" style="rounded=0;whiteSpace=wrap;html=1;fillColor=#fad7ac;strokeColor=#b46504;" parent="1" vertex="1">
          <mxGeometry x="480" y="560" width="200" height="40" as="geometry" />
        </mxCell>
      </root>
    </mxGraphModel>
  </diagram>
</mxfile>
